<svg enable-background="new 0 0 256 256" height="256px" id="Layer_1" version="1.1" viewBox="0 0 256 256" width="256px" xml:space="preserve" xmlns="http://www.w3.org/2000/svg" xmlns:xlink="http://www.w3.org/1999/xlink">
	<g>
		<g>
			<path d="M81.907,142.972c-0.766,0-1.543-0.12-2.31-0.375c-3.837-1.275-5.915-5.42-4.64-9.257L117.544,5.181    c1.275-3.837,5.42-5.913,9.257-4.64c3.838,1.275,5.915,5.42,4.64,9.257L88.854,137.957    C87.833,141.028,84.975,142.972,81.907,142.972z" fill="#7789A2"/>
		</g>
		<g>
			<path d="M196.144,255.67H61.305c-10.925,0-19.813-8.89-19.813-19.815V70.866c0-10.926,8.888-19.815,19.813-19.815    H82.31c5.392,0,9.762,4.371,9.762,9.762s-4.371,9.762-9.762,9.762H61.305c-0.138,0-0.289,0.152-0.289,0.291v164.989    c0,0.139,0.151,0.29,0.289,0.29h134.839c0.136,0,0.29-0.154,0.29-0.29V70.866c0-0.136-0.154-0.291-0.29-0.291h-61.958    c-5.392,0-9.762-4.371-9.762-9.762s4.371-9.762,9.762-9.762h61.958c10.926,0,19.815,8.889,19.815,19.815v164.989    C215.959,246.78,207.069,255.67,196.144,255.67z" fill="#7789A2"/>
		</g>
		<g>
			<path d="M185.632,174.974H71.729c-4.043,0-7.322-3.277-7.322-7.321s3.278-7.321,7.322-7.321h113.902    c4.044,0,7.321,3.277,7.321,7.321S189.676,174.974,185.632,174.974z" fill="#7789A2"/>
		</g>
		<g>
			<path d="M184.251,145.066h-61.144c-4.043,0-7.322-3.277-7.322-7.321s3.278-7.321,7.322-7.321h61.144    c4.044,0,7.321,3.277,7.321,7.321S188.295,145.066,184.251,145.066z" fill="#7789A2"/>
		</g>
	</g>
</svg>